# xmcd CD database file
#
# Track frame offsets:
#	150
#	20492
#	36985
#
# Disc length: 706 seconds
#
# Revision: 3
# Processed by: cddbd v1.5.1PL0 Copyright (c) Steve Scherf et al.
# Submitted via: CDex 1.51
#
DISCID=1e02c003
DTITLE=The Blue Nile - Happiness
DYEAR=1996
DGENRE=Rock
TTITLE0=Happiness (Edit)
TTITLE1=O Lolita
TTITLE2=War Is Love
EXTD=YEAR: 1996
EXTT0=
EXTT1=
EXTT2=
PLAYORDER=
